PathFileType	4	(X/Y/Z)	./resultDataOpenSim/trcMotMarkerGrf/sub10/qtm-14-02.trc
DataRate	CameraRate	NumFrames	NumMarkers	Units	OrigDataRate	OrigDataStartFrame	OrigNumFrames
250.000000	250.000000	14	24	m	250.000000	62	490
Frame#	Time	L.Toe.Tip			R.Toe.Tip			L.Ankle.Lat			R.Ankle.Lat			L.Ankle.Med			R.Ankle.Med			L.Heel			R.Heel			L.Knee.Lat			R.Knee.Lat			L.Knee.Med			R.Knee.Med			L.Thigh.Upper			R.Thigh.Upper			L.ASIS			R.ASIS			V.Sacral			L.Acromium			R.Acromium			C7			L.Elbow			R.Elbow			L.Wrist.Lat			R.Wrist.Lat
		X1	Y1	Z1	X2	Y2	Z2	X3	Y3	Z3	X4	Y4	Z4	X5	Y5	Z5	X6	Y6	Z6	X7	Y7	Z7	X8	Y8	Z8	X9	Y9	Z9	X10	Y10	Z10	X11	Y11	Z11	X12	Y12	Z12	X13	Y13	Z13	X14	Y14	Z14	X15	Y15	Z15	X16	Y16	Z16	X17	Y17	Z17	X18	Y18	Z18	X19	Y19	Z19	X20	Y20	Z20	X21	Y21	Z21	X22	Y22	Z22	X23	Y23	Z23	X24	Y24	Z24

62	0.244	-1.3253734	0.074082671	-0.18856147	-0.6999891	0.038985692	-0.0014824032	-1.3163973	0.21142131	-0.22125894	-0.84117507	0.053298619	0.03235412	-1.2859009	0.20459991	-0.14340785	-0.82401401	0.080143459	-0.050908346	-1.3543135	0.26153213	-0.17226411	-0.89307264	0.029106952	-0.016333662	-1.0019179	0.41090636	-0.24690515	-0.81879167	0.44973383	0.072561303	-0.97848628	0.36965168	-0.13455404	-0.81474073	0.45911652	-0.054956755	-0.96500847	0.78654448	-0.24650477	-0.91995164	0.85489516	0.13380578	-0.89510041	0.8961394	-0.18970968	-0.86494708	0.93685469	0.046549835	-1.0794553	0.93651548	-0.048687033	-0.91728891	1.3900216	-0.20991584	-0.95074441	1.3828947	0.11152465	-1.0162782	1.4198925	-0.057326164	-0.99444524	1.050806	-0.26309752	-1.1080176	1.0791259	0.13220531	-0.80269488	0.90087613	-0.3149184	-1.0813262	0.85045262	0.21215412
63	0.248	-1.3104908	0.075165353	-0.18905595	-0.69991741	0.038935674	-0.0015138995	-1.3040843	0.21285141	-0.22028028	-0.84124641	0.053293585	0.03236271	-1.2735402	0.2060805	-0.14253165	-0.8237707	0.080143174	-0.05094602	-1.3432374	0.26205041	-0.17081147	-0.89313114	0.029113933	-0.01635283	-0.98900585	0.41174585	-0.24650355	-0.81680402	0.44977869	0.072891965	-0.96615368	0.37073727	-0.13399049	-0.81302188	0.45904136	-0.05462496	-0.95822805	0.78717302	-0.24584801	-0.91534704	0.85544687	0.13421859	-0.88927701	0.89726878	-0.18949328	-0.85941865	0.93745865	0.047331329	-1.0744098	0.93729722	-0.04945529	-0.91145955	1.3908671	-0.20945128	-0.94410652	1.3836864	0.11210459	-1.0102842	1.4209747	-0.056425205	-0.98974294	1.0519766	-0.26254196	-1.1008643	1.0793371	0.13387634	-0.799709	0.90022004	-0.31565668	-1.0719179	0.85066819	0.2132376
64	0.252	-1.2952734	0.076055403	-0.18941349	-0.69986195	0.038893244	-0.0015243747	-1.2915937	0.21406582	-0.21926177	-0.84134692	0.053293992	0.032375687	-1.2609697	0.20738723	-0.14160953	-0.82356075	0.080146743	-0.050960799	-1.332178	0.26223185	-0.16934596	-0.89319291	0.029121915	-0.016374928	-0.97612094	0.41271708	-0.24607203	-0.81489834	0.4497953	0.073257138	-0.95383299	0.37185016	-0.13339229	-0.81130771	0.45900947	-0.054266653	-0.95150466	0.78797545	-0.24515739	-0.9107047	0.85604592	0.1346563	-0.88351143	0.89847408	-0.18934576	-0.85392531	0.93806488	0.048150998	-1.0693673	0.9381527	-0.050281837	-0.90565044	1.3917353	-0.2089986	-0.93760757	1.384503	0.1126691	-1.0043465	1.4220342	-0.05555944	-0.98504029	1.0532054	-0.261965	-1.093714	1.0795438	0.13554324	-0.79662709	0.89960773	-0.31631017	-1.0623484	0.850936	0.21439008
65	0.256	-1.2797558	0.076751238	-0.18966453	-0.6998244	0.038860661	-0.0015127488	-1.2789468	0.21504344	-0.21822068	-0.84145351	0.05329982	0.032388949	-1.2482139	0.20849134	-0.14064208	-0.82338829	0.080161527	-0.050956358	-1.3210603	0.26208862	-0.16799183	-0.89325714	0.029131838	-0.016406079	-0.96337738	0.41376792	-0.24563061	-0.81309666	0.4497754	0.073651576	-0.94150107	0.3730167	-0.13276739	-0.80964728	0.45902549	-0.053881431	-0.94496321	0.7889176	-0.24455924	-0.90608324	0.85670325	0.1351047	-0.87781178	0.89974141	-0.18925993	-0.84845105	0.93869378	0.04902033	-1.064173	0.93908354	-0.05087383	-0.89986493	1.3926347	-0.20854919	-0.93117761	1.3853675	0.11320424	-0.99846991	1.4230733	-0.05473136	-0.98033322	1.0544972	-0.26135834	-1.0865796	1.0797563	0.13721555	-0.79346735	0.89904394	-0.31686943	-1.0525452	0.85128011	0.21563107
66	0.26	-1.2638833	0.077276466	-0.18990934	-0.69981014	0.038839104	-0.0014805406	-1.2661589	0.21577491	-0.21716925	-0.84156107	0.053307443	0.032403297	-1.2353303	0.20940448	-0.13965068	-0.82325771	0.080192612	-0.050934377	-1.3098118	0.26163798	-0.16676757	-0.89332268	0.029144364	-0.016448587	-0.95077964	0.41487241	-0.24515115	-0.81140049	0.44973333	0.074075387	-0.92915171	0.37426834	-0.13211625	-0.8080533	0.45909254	-0.053470063	-0.93870831	0.7899551	-0.24415028	-0.90152092	0.85743604	0.13554692	-0.87218024	0.901051	-0.18922757	-0.84299569	0.9393647	0.049941813	-1.0588224	0.94008628	-0.051190787	-0.89410584	1.3935786	-0.20809238	-0.92477738	1.3862894	0.11370293	-0.99265739	1.4241043	-0.05395582	-0.97564629	1.0558561	-0.26075332	-1.0794652	1.0799831	0.13891129	-0.79036424	0.89853153	-0.31736777	-1.0424933	0.85172333	0.21694043
67	0.264	-1.2475695	0.077675309	-0.1902385	-0.69982413	0.038828359	-0.0014311782	-1.2532421	0.21627217	-0.21611742	-0.84166232	0.053313732	0.032419422	-1.2223033	0.21017995	-0.13867704	-0.82317177	0.080238987	-0.050893211	-1.2983877	0.26089969	-0.16563585	-0.89338246	0.029158982	-0.016496412	-0.93830089	0.41602183	-0.244601	-0.80979917	0.44969046	0.074527738	-0.91680368	0.37562378	-0.13142656	-0.80653035	0.45920454	-0.053032102	-0.93272106	0.79106163	-0.24390797	-0.89702053	0.85823414	0.13596749	-0.86660471	0.90237947	-0.18922684	-0.83761526	0.94008486	0.050889622	-1.0534046	0.94115447	-0.051362964	-0.88838224	1.3945771	-0.20762536	-0.91840071	1.3872567	0.11416913	-0.98690724	1.42514	-0.053247846	-0.97100272	1.0572845	-0.26017803	-1.0723605	1.0802222	0.14065399	-0.78748623	0.8980644	-0.31785976	-1.0322983	0.85225122	0.21826146
68	0.268	-1.2308664	0.077974821	-0.19058032	-0.69986607	0.038828028	-0.0013674413	-1.2402029	0.21656165	-0.21507522	-0.84174673	0.053317944	0.032435212	-1.2091101	0.21085623	-0.13773933	-0.82312921	0.080297105	-0.050830307	-1.2867689	0.25989042	-0.16457883	-0.89342085	0.029175349	-0.016556529	-0.9259284	0.41721865	-0.24396946	-0.80829416	0.44965352	0.074999557	-0.90446538	0.3770841	-0.13068012	-0.80510467	0.45933886	-0.052565706	-0.92689241	0.79223814	-0.24372483	-0.89257852	0.85905679	0.13635958	-0.86106923	0.90370985	-0.18922396	-0.83242762	0.9408466	0.051810891	-1.0479948	0.94227649	-0.051508966	-0.88270437	1.3956312	-0.20715621	-0.91206173	1.3882537	0.11461628	-0.98120756	1.4261867	-0.052609695	-0.96641101	1.0587758	-0.25964625	-1.0652489	1.080463	0.1424556	-0.78490879	0.8976316	-0.31837693	-1.0221481	0.85282207	0.21953984
69	0.272	-1.2140219	0.078158735	-0.19071981	-0.69993159	0.038837581	-0.0012889625	-1.227034	0.21665296	-0.21405668	-0.84182077	0.053321403	0.032449128	-1.1957897	0.21140247	-0.13680897	-0.82312793	0.080365995	-0.050743492	-1.2749528	0.25862492	-0.16360348	-0.89341915	0.029194695	-0.016661267	-0.91365346	0.41847834	-0.24326134	-0.80690182	0.44962149	0.075486848	-0.89215038	0.37864128	-0.12986375	-0.80379266	0.45946746	-0.052068902	-0.92108724	0.79350465	-0.24347881	-0.88819788	0.85986813	0.13673052	-0.85555529	0.90504349	-0.18918832	-0.82751549	0.94163786	0.05267225	-1.0426135	0.9434281	-0.051666074	-0.87707818	1.3967341	-0.2066895	-0.90579902	1.3892807	0.11506575	-0.97553594	1.4272475	-0.052029161	-0.96186698	1.0603178	-0.25916085	-1.0581404	1.0806927	0.14426611	-0.78256188	0.89723281	-0.31890129	-1.0122194	0.8534112	0.22075767
70	0.276	-1.1972244	0.078204177	-0.1905663	-0.7000181	0.038856232	-0.0011916095	-1.2137057	0.21651455	-0.21307038	-0.84194004	0.053322798	0.032466885	-1.182401	0.21172751	-0.13585043	-0.82316927	0.080447136	-0.050630876	-1.2629249	0.25711474	-0.16270011	-0.89337396	0.029219294	-0.016827786	-0.90145166	0.41982275	-0.2424875	-0.80562643	0.44960608	0.076002462	-0.87988529	0.38029115	-0.12897012	-0.80254023	0.45958017	-0.051546216	-0.91520264	0.79487038	-0.243095	-0.88386802	0.86066685	0.13710303	-0.85004976	0.90639012	-0.18910894	-0.822799	0.94246162	0.053507751	-1.0372131	0.94456913	-0.051774198	-0.87151554	1.3978791	-0.2062207	-0.89965851	1.3903435	0.11553851	-0.96986748	1.4283241	-0.051487125	-0.95736169	1.0619023	-0.25871868	-1.0511206	1.0809034	0.14590331	-0.78031557	0.89687941	-0.31938798	-1.0025673	0.85402512	0.22194545
71	0.28	-1.1804047	0.078121704	-0.1902634	-0.70012891	0.038883418	-0.0010688248	-1.2001728	0.21608876	-0.21211787	-0.84221628	0.05331074	0.032503483	-1.1689336	0.21174266	-0.13486573	-0.82325732	0.080540454	-0.050492288	-1.250635	0.25535858	-0.1618124	-0.89331209	0.029250834	-0.017013801	-0.88927673	0.42126749	-0.24166286	-0.80445653	0.44962268	0.076560322	-0.86767668	0.38203512	-0.12798887	-0.80122952	0.45968957	-0.051014935	-0.9092274	0.79630091	-0.24257819	-0.87953828	0.86148601	0.13751281	-0.84456157	0.90774996	-0.18899273	-0.81808342	0.94333865	0.05438641	-1.0316797	0.94565606	-0.051681579	-0.86604091	1.3990624	-0.20575235	-0.89365735	1.3914357	0.11604295	-0.96418533	1.4294186	-0.050969345	-0.95288997	1.0635281	-0.25831631	-1.0443549	1.0811019	0.14707739	-0.77809965	0.89658001	-0.31980903	-0.99303686	0.85468788	0.22317342
72	0.284	-1.1634191	0.077932001	-0.18996696	-0.70027136	0.038918192	-0.00091542759	-1.1864342	0.21532855	-0.21119805	-0.84273089	0.053265563	0.032573201	-1.1553057	0.21141034	-0.1338839	-0.82339121	0.080641624	-0.050332917	-1.2380396	0.25334427	-0.16087802	-0.89327204	0.029288686	-0.017154009	-0.87708376	0.42281418	-0.24079879	-0.80339887	0.4496621	0.077151965	-0.85550543	0.38387373	-0.12690564	-0.79980639	0.4598018	-0.050495436	-0.90320829	0.79773543	-0.24197135	-0.87512993	0.86235879	0.13798877	-0.83912094	0.90911477	-0.18884558	-0.81324805	0.9442842	0.055331718	-1.0259254	0.94667623	-0.051262714	-0.86066177	1.4002792	-0.20529455	-0.88777596	1.3925467	0.1165712	-0.95848628	1.43053	-0.050470832	-0.94845378	1.0651969	-0.25795138	-1.037944	1.081314	0.14768249	-0.77592366	0.89633087	-0.32016706	-0.98335622	0.8554225	0.22448795
73	0.288	-1.1462416	0.077639041	-0.18969259	-0.70044893	0.038959431	-0.00073343415	-1.1725932	0.21422064	-0.21028615	-0.84339995	0.053180284	0.032671167	-1.14146	0.21073563	-0.13292696	-0.82356044	0.080745043	-0.050162029	-1.2251788	0.25106369	-0.15990414	-0.89326947	0.029330347	-0.017231335	-0.86488399	0.42444852	-0.2398978	-0.80247846	0.44969379	0.077749213	-0.84336931	0.38580248	-0.12571903	-0.7983694	0.45989215	-0.049992399	-0.89719216	0.79913552	-0.24133124	-0.8706185	0.86327547	0.13851975	-0.83376209	0.91047438	-0.18866183	-0.80834493	0.94528592	0.056299407	-1.0200293	0.94767648	-0.050610702	-0.85531841	1.4015263	-0.20483889	-0.88198208	1.3936737	0.11710607	-0.95277655	1.4316497	-0.049989237	-0.94405507	1.0669057	-0.25761826	-1.0317309	1.0815729	0.14811978	-0.77382324	0.89611901	-0.32047986	-0.9733928	0.8562307	0.22584876
74	0.292	-1.1289028	0.07724116	-0.18939104	-0.70065518	0.039007357	-0.00053402095	-1.1587644	0.21279113	-0.20934297	-0.84400843	0.053080394	0.032772594	-1.1273736	0.20974666	-0.13200565	-0.82375535	0.080850044	-0.049983607	-1.212155	0.24851271	-0.15895092	-0.89329344	0.029374306	-0.017275639	-0.85278029	0.42614741	-0.23896663	-0.80168504	0.44970463	0.078332324	-0.83130955	0.38781151	-0.12445056	-0.79706585	0.45992544	-0.049490879	-0.89126828	0.80049278	-0.24076397	-0.86611721	0.86419226	0.13904015	-0.82849261	0.91182275	-0.18842733	-0.80356796	0.94630334	0.057207338	-1.0142041	0.94872781	-0.050021578	-0.84990303	1.4028019	-0.20435517	-0.87625312	1.3948143	0.11763372	-0.94706463	1.4327678	-0.049523677	-0.93968713	1.0686417	-0.25730725	-1.025404	1.0818945	0.14901876	-0.77182591	0.89593655	-0.32076884	-0.9632445	0.85709063	0.22718365
75	0.296	-1.1114155	0.076735979	-0.18902674	-0.70087851	0.039062357	-0.00032928442	-1.1449014	0.21109841	-0.20837963	-0.84441795	0.053004443	0.032857826	-1.1130547	0.20849774	-0.13111924	-0.82398144	0.080961801	-0.049791724	-1.1990356	0.24568145	-0.15805479	-0.89333328	0.029418483	-0.017302861	-0.84092153	0.42788499	-0.23801592	-0.80095085	0.44971938	0.078906818	-0.81937679	0.38989335	-0.12312427	-0.79595496	0.45988771	-0.048973593	-0.88554449	0.80180808	-0.24036729	-0.86178941	0.86507708	0.13948323	-0.82325489	0.91317133	-0.18812234	-0.79909913	0.94729426	0.057988695	-1.0085819	0.94985747	-0.049705616	-0.84438723	1.4041009	-0.203834	-0.87058275	1.3959616	0.11815538	-0.94135727	1.4338807	-0.049077688	-0.93533897	1.0703872	-0.25701043	-1.0188118	1.0822579	0.15059426	-0.76995112	0.89578877	-0.32105505	-0.9530698	0.85797759	0.22847211
